<?xml version="1.0"?>
<svg version="1.1" xmlns="http://www.w3.org/2000/svg" width="430" height="200" style=""><path fill="#6b6b6b" d="M46.62,106.6l-1.5-5.16s-2.82-0.96-6.78-0.96c-6.42,0-10.02,4.68-10.02,14.7c0,9.72,3.78,13.92,10.2,13.92c3.12,0,6.6-1.08,6.6-1.08l0-7.56l-4.5-1.38l0-4.92l17.28-0.3l0,5.22l-4.08,1.38l0,12.24s-6.18,4.02-16.32,4.02c-12.18,0-19.2-7.32-19.2-21.24c0-14.1,7.92-22.5,20.22-22.5c7.26,0,13.98,2.82,13.98,2.82l-0.3,10.8l-5.58,0z M95.5506,121.78l-19.92,0c0.36,4.8,3.12,7.62,7.26,7.62c4.98,0,10.08-2.82,10.08-2.82l2.58,4.98s-6,5.04-13.68,5.04c-10.32,0-15.6-6-15.6-16.2c0-10.5,5.94-17.4,16.02-17.4c8.94,0,13.62,5.52,13.62,14.1c0,2.28-0.36,4.5-0.36,4.68z M75.7506,116.2l10.86,0c0-3.42-1.44-6-4.92-6c-3.36,0-5.46,2.46-5.94,6z M109.8612,125.5l0.48,3.9s2.1,0.6,5.04,0.6c3.3,0,4.92-1.02,4.92-2.94c0-4.92-16.02-3.12-16.02-13.8c0-7.5,6-10.26,12.36-10.26c5.4,0,11.16,1.8,11.16,1.8l-0.24,9l-5.1,0l-0.9-3.6s-1.74-0.6-4.14-0.6c-2.58,0-4.14,1.08-4.14,3.06c0,4.86,16.02,2.76,16.02,13.14c0,6.9-5.58,10.8-13.8,10.8c-5.7,0-11.04-1.32-11.04-1.32l0-9.78l5.4,0z M158.9718,128.32l2.16,4.56c-2.94,2.16-6.3,3.72-10.2,3.72c-6.9,0-8.88-4.8-8.88-11.7l0-13.8l-5.58,0l0-5.82l5.58-0.78l0-8.28l9-1.62l0,9.9l8.4,0l0,6.6l-8.4,0l0,13.2c0,3.84,0.66,5.4,3.18,5.4c1.62,0,3.96-0.96,4.74-1.38z"/><path fill="#6b6b6b" d="M174.4024,160l0-8.5l7.5-3l0-47l-7.5-3l0-8.5l23-0.5l9.5,0c15.3,0,24.3,8,24.3,21c0,16.8-10.3,25-28.5,25l-5.3,0l0,13l7.5,3l0,8.5l-30.5,0z M197.4024,123.8l5.3,0c8.3,0,13-3.9,13-11.3c0-6.5-3.5-11-10.3-11l-8,0l0,22.3z M277.7534,160l-1.8-6.5s-7.7,7.5-16.2,7.5c-9.7,0-15.6-5.7-15.6-15.7c0-11.8,8.9-16.5,24.1-16.5l7,0l0-5.5c0-5.1-2.7-7.3-7.7-7.3c-5.1,0-8.8,1.5-8.8,1.5l-1.5,6.3l-9,0l-0.7-14.8s12.1-4,21.7-4c15.2,0,21,5.3,21,19.8l0,24.7l7.5,1.8l0,8z M275.2534,137.3l-5.7,0c-7.8,0-10.9,2-10.9,6.5c0,3.8,2.1,6,5.9,6c5.3,0,10.7-5.8,10.7-5.8l0-6.7z M331.7044,106l0.9,6.9s7.2-7.9,13.9-7.9c5.5,0,9.3,1.8,9.3,1.8l-0.8,19.2l-9,0l-1.5-8.5c-5.8,0-10.8,5.6-10.8,5.6l0,26.4l10,2.5l0,8l-33,0l0-8l8-2.5l0-32.5l-8-2.5l0-8z M388.2554,126.1l6.6,0l6.8-10.2l-4.4-1.4l0-8l25.8-0.5l0,8.5l-7,1.3l-9.3,13.1l11.2,20.7l7.6,2.4l0,8l-18.5,0l-12.4-24.4l-6.4,0l0,13.9l5.5,2.5l0,8l-28.5,0l0-8l8-2.5l0-56.2l-8-2l0-8l23-0.8l0,43.6z"/></svg>
